<?xml version="1.0" encoding="utf-8"?>
<svg xmlns="http://www.w3.org/2000/svg"><symbol viewBox="-1 -1 138 42" fill="none" id="r-footer-android-app-icon" xmlns="http://www.w3.org/2000/svg"><path d="M130.54 39.63H5.24C2.485 39.63.23 37.398.23 34.674V4.954C.229 2.23 2.485 0 5.24 0h125.3c2.755 0 5.011 2.23 5.011 4.954v29.721c0 2.724-2.256 4.954-5.011 4.954z" fill="#000"/><path fill-rule="evenodd" clip-rule="evenodd" d="M5.24 0h125.3c2.755 0 5.011 2.23 5.011 4.954v29.721c0 2.724-2.256 4.954-5.011 4.954H5.24C2.485 39.63.23 37.4.23 34.676V4.953C.229 2.23 2.485 0 5.24 0zm129.508 4.954c0-2.294-1.888-4.16-4.208-4.16H5.24c-2.32 0-4.208 1.866-4.208 4.16v29.721c0 2.294 1.888 4.16 4.209 4.16H130.54c2.32 0 4.208-1.866 4.208-4.16V4.954z" fill="#A6A6A6"/><path d="M47.76 10.149c0 .827-.251 1.49-.745 1.984-.568.585-1.307.88-2.213.88-.866 0-1.605-.3-2.211-.89-.608-.6-.911-1.335-.911-2.216 0-.88.303-1.616.91-2.21.607-.596 1.346-.896 2.212-.896.431 0 .842.088 1.234.252.391.164.71.387.94.662l-.524.523c-.402-.47-.95-.701-1.65-.701-.631 0-1.179.218-1.644.657-.46.441-.69 1.012-.69 1.713 0 .701.23 1.277.69 1.718a2.332 2.332 0 0 0 1.644.658c.67 0 1.234-.223 1.68-.663.292-.291.459-.692.503-1.205h-2.183v-.716h2.912c.035.155.045.305.045.45zM52.38 7.667h-2.736v1.882h2.466v.716h-2.466v1.882h2.735v.73h-3.51v-5.94h3.51v.73zM55.64 12.877h-.775v-5.21h-1.678v-.73h4.132v.73h-1.68v5.21zM60.308 12.877v-5.94h.773v5.94h-.773zM64.508 12.877h-.768v-5.21h-1.684v-.73h4.136v.73h-1.684v5.21z" fill="#fff" stroke="#fff" stroke-width=".625"/><path fill-rule="evenodd" clip-rule="evenodd" d="M71.81 13.013c.876 0 1.61-.3 2.203-.9.592-.6.886-1.335.886-2.206 0-.865-.294-1.596-.89-2.2C73.414 7.1 72.68 6.8 71.81 6.8c-.88 0-1.615.3-2.207.9-.592.6-.886 1.336-.886 2.206 0 .87.294 1.606.886 2.206.592.6 1.327.9 2.207.9zm0-.73c-.646 0-1.189-.223-1.635-.668-.444-.445-.67-1.015-.67-1.708 0-.692.226-1.263.67-1.708a2.224 2.224 0 0 1 1.636-.667c.641 0 1.189.223 1.63.667.444.445.67 1.016.67 1.708 0 .693-.226 1.263-.67 1.708a2.213 2.213 0 0 1-1.63.668z" fill="#fff"/><path d="M74.013 12.113l.223.22-.223-.22zm-.005-4.406l-.223.218v.001l.223-.22zm-4.405-.005l-.223-.22.223.22zm0 4.41l-.223.22.223-.22zm.572-.497l-.22.221.22-.221zm0-3.416l-.22-.22.22.22zm3.266 0l-.222.22v.002l.222-.222zm0 3.416l-.221-.221h-.001l.222.221zm.35.278c-.532.539-1.185.808-1.98.808v.625c.955 0 1.77-.331 2.425-.994l-.445-.439zm.796-1.986c0 .792-.265 1.448-.796 1.986l.445.44c.651-.661.976-1.476.976-2.426h-.625zm-.801-1.98c.537.543.8 1.194.8 1.98h.626c0-.945-.326-1.755-.981-2.42l-.445.44zm-1.976-.813c.79 0 1.444.268 1.975.811l.447-.437c-.654-.668-1.47-1-2.422-1v.626zm-1.985.807c.531-.538 1.184-.807 1.985-.807v-.625c-.96 0-1.776.33-2.43.993l.445.44zm-.796 1.986c0-.792.265-1.447.796-1.986l-.445-.439c-.651.66-.976 1.476-.976 2.425h.625zm.796 1.986c-.531-.538-.796-1.194-.796-1.986h-.625c0 .95.325 1.765.976 2.425l.445-.439zm1.985.808c-.8 0-1.454-.27-1.985-.808l-.445.44c.654.662 1.47.993 2.43.993V12.7zm-1.855-.865a2.537 2.537 0 0 0 1.856.759v-.625a1.913 1.913 0 0 1-1.415-.576l-.441.442zm-.763-1.929c0 .767.253 1.42.762 1.93l.442-.443c-.38-.38-.579-.869-.579-1.487h-.624zm.762-1.929c-.509.51-.761 1.162-.761 1.93h.624c0-.619.199-1.107.58-1.487l-.443-.443zm1.857-.759c-.728 0-1.35.255-1.856.76l.441.442a1.913 1.913 0 0 1 1.415-.577V7.22zm1.851.76a2.525 2.525 0 0 0-1.852-.76v.625c.562 0 1.028.192 1.409.576l.444-.44zm.761 1.928c0-.767-.252-1.42-.761-1.929l-.442.443c.38.38.579.868.579 1.486h.624zm-.761 1.93c.509-.51.761-1.163.761-1.93H73.8c0 .618-.199 1.107-.58 1.487l.443.442zm-1.852.758c.722 0 1.35-.254 1.852-.76l-.443-.44c-.38.383-.847.575-1.408.575v.625z" fill="#fff"/><path d="M75.985 12.877v-5.94h.94l2.922 4.62h.034l-.034-1.142V6.937h.773v5.94h-.807l-3.06-4.847h-.033l.033 1.146v3.7h-.768z" fill="#fff" stroke="#fff" stroke-width=".625"/><path fill-rule="evenodd" clip-rule="evenodd" d="M79.984 22.49h-.063c-.42-.493-1.224-.94-2.241-.94-2.135 0-4.088 1.853-4.088 4.229 0 2.361 1.953 4.2 4.088 4.2 1.017 0 1.82-.45 2.241-.958h.063v.604c0 1.611-.87 2.477-2.275 2.477-1.146 0-1.856-.817-2.15-1.505l-1.63.673c.47 1.117 1.715 2.491 3.78 2.491 2.197 0 4.052-1.278 4.052-4.387v-7.567h-1.777v.682zm-31.897.352v1.791h4.326c-.127 1-.465 1.736-.983 2.25-.632.618-1.616 1.306-3.343 1.306a4.722 4.722 0 0 1-4.748-4.756 4.723 4.723 0 0 1 4.748-4.755c1.44 0 2.487.556 3.26 1.276l1.277-1.262c-1.082-1.02-2.52-1.804-4.538-1.804-3.65 0-6.72 2.936-6.72 6.545s3.07 6.545 6.72 6.545c1.974 0 3.456-.639 4.622-1.838 1.194-1.18 1.566-2.84 1.566-4.18 0-.415-.035-.798-.098-1.118h-6.09zm11.106-1.291c-2.36 0-4.278 1.77-4.278 4.214 0 2.424 1.919 4.213 4.278 4.213 2.358 0 4.278-1.79 4.278-4.213 0-2.443-1.92-4.214-4.278-4.214zm5.056 4.214c0-2.443 1.923-4.214 4.278-4.214 2.359 0 4.282 1.77 4.282 4.214 0 2.424-1.923 4.213-4.282 4.213-2.355 0-4.278-1.79-4.278-4.213zm1.874 0c0 1.5 1.112 2.554 2.403 2.554 1.292 0 2.409-1.054 2.409-2.554 0-1.52-1.117-2.555-2.409-2.555-1.291 0-2.403 1.035-2.403 2.555zm-9.338 0c0 1.5 1.115 2.554 2.408 2.554 1.292 0 2.403-1.054 2.403-2.554 0-1.52-1.111-2.555-2.403-2.555-1.293 0-2.408 1.035-2.408 2.555zm33.066-4.214c2.213 0 3.3 1.737 3.651 2.68l.197.479-5.702 2.332c.436.847 1.116 1.277 2.065 1.277.954 0 1.615-.465 2.1-1.166l1.453.958a4.238 4.238 0 0 1-3.553 1.867c-2.422 0-4.23-1.853-4.23-4.213 0-2.506 1.826-4.214 4.02-4.214zm-2.163 4.083c-.048-1.625 1.277-2.457 2.227-2.457.744 0 1.376.368 1.586.894l-3.813 1.563zm-2.76 4.088h-1.874V17.338h1.874v12.384zm-9.461-3.943c0 1.47 1.081 2.54 2.373 2.54 1.273 0 2.277-1.07 2.277-2.54 0-1.485-1.004-2.569-2.277-2.569-1.292 0-2.373 1.084-2.373 2.569zm26.811-8.441h-4.483v12.384h1.87v-4.693h2.613c2.077 0 4.113-1.485 4.113-3.846 0-2.36-2.041-3.845-4.113-3.845zm-2.613 5.969h2.662c1.396 0 2.193-1.165 2.193-2.124 0-.977-.797-2.123-2.193-2.123h-2.662v4.247zm14.219-1.78c-1.351 0-2.756.59-3.333 1.896l1.659.688c.357-.688 1.013-.91 1.707-.91.97 0 1.954.575 1.969 1.592v.13c-.338-.193-1.063-.48-1.954-.48-1.786 0-3.607.973-3.607 2.787 0 1.66 1.464 2.728 3.109 2.728 1.258 0 1.952-.56 2.388-1.213h.064v.957h1.805v-4.75c0-2.196-1.659-3.425-3.807-3.425zm-1.69 5.738c0 .749.852 1.049 1.464 1.049a2.26 2.26 0 0 0 2.228-1.96c-.5-.236-.886-.416-1.709-.416-.92 0-1.983.368-1.983 1.327zm12.076-5.467l-2.149 5.369h-.064l-2.222-5.369h-2.016l3.338 7.503-1.904 4.174h1.953l5.144-11.677h-2.08zm-14.977 7.924h-1.875V17.338h1.875v12.384z" fill="#fff"/><path d="M10.688 7.469c-.294.304-.464.779-.464 1.393v21.91c0 .614.17 1.088.464 1.393l.073.067 12.422-12.273v-.29L10.761 7.397l-.072.072z" fill="url(#aa)"/><path d="M27.32 24.052l-4.136-4.093v-.29l4.14-4.092.093.053 4.905 2.758c1.4.782 1.4 2.07 0 2.858l-4.905 2.753-.097.053z" fill="url(#ab)"/><path d="M27.417 24l-4.234-4.186-12.495 12.351c.465.483 1.223.541 2.085.058L27.418 24z" fill="url(#ac)"/><path d="M27.417 15.63L12.773 7.406c-.862-.478-1.62-.42-2.085.063l12.495 12.345 4.234-4.184z" fill="url(#ad)"/><defs><linearGradient id="aa" x1="17.742" y1="47.119" x2="-2.117" y2="41.774" gradientUnits="userSpaceOnUse"><stop stop-color="#00A0FF"/><stop offset=".007" stop-color="#00A1FF"/><stop offset=".26" stop-color="#00BEFF"/><stop offset=".512" stop-color="#00D2FF"/><stop offset=".76" stop-color="#00DFFF"/><stop offset="1" stop-color="#00E3FF"/></linearGradient><linearGradient id="ab" x1="34.144" y1="29.902" x2="9.889" y2="29.902" gradientUnits="userSpaceOnUse"><stop stop-color="#FFE000"/><stop offset=".409" stop-color="#FFBD00"/><stop offset=".775" stop-color="#FFA500"/><stop offset="1" stop-color="#FF9C00"/></linearGradient><linearGradient id="ac" x1="10.316" y1="26.229" x2="-5.377" y2="-.499" gradientUnits="userSpaceOnUse"><stop stop-color="#FF3A44"/><stop offset="1" stop-color="#C31162"/></linearGradient><linearGradient id="ad" x1=".933" y1="35.576" x2="7.936" y2="23.64" gradientUnits="userSpaceOnUse"><stop stop-color="#32A071"/><stop offset=".069" stop-color="#2DA771"/><stop offset=".476" stop-color="#15CF74"/><stop offset=".801" stop-color="#06E775"/><stop offset="1" stop-color="#00F076"/></linearGradient></defs></symbol><symbol viewBox="-1 -1 137 42" fill="none" id="r-footer-apple-app-icon" xmlns="http://www.w3.org/2000/svg"><path d="M130.197 40H4.729A4.74 4.74 0 0 1 0 35.267V4.726A4.733 4.733 0 0 1 4.729 0h125.468C132.803 0 135 2.12 135 4.726v30.541c0 2.605-2.197 4.733-4.803 4.733z" fill="#A6A6A6"/><path d="M134.032 35.268a3.83 3.83 0 0 1-3.834 3.83H4.729a3.835 3.835 0 0 1-3.839-3.83V4.725A3.84 3.84 0 0 1 4.73.89h125.467a3.834 3.834 0 0 1 3.834 3.835l.001 30.543z" fill="#000"/><path d="M30.128 19.784c-.029-3.223 2.64-4.79 2.761-4.864-1.51-2.203-3.853-2.504-4.676-2.528-1.967-.207-3.875 1.177-4.877 1.177-1.022 0-2.565-1.157-4.228-1.123-2.14.033-4.142 1.272-5.24 3.196-2.266 3.923-.576 9.688 1.595 12.86 1.086 1.552 2.355 3.286 4.016 3.225 1.625-.067 2.232-1.036 4.193-1.036 1.943 0 2.513 1.036 4.207.997 1.744-.028 2.842-1.56 3.89-3.127 1.255-1.78 1.76-3.533 1.78-3.623-.042-.014-3.388-1.29-3.42-5.154zM26.928 10.306c.874-1.093 1.472-2.58 1.306-4.089-1.265.056-2.847.875-3.758 1.944-.806.942-1.526 2.486-1.34 3.938 1.421.106 2.88-.717 3.792-1.793z" fill="#fff"/><path fill-rule="evenodd" clip-rule="evenodd" d="M51.374 31.504h2.271L49.34 18.196h-2.646L42.41 31.504h2.211l1.185-3.909h4.324l1.244 3.909zM48.63 22.48l1.125 3.475h-3.573l1.105-3.475a96.75 96.75 0 0 0 .632-2.507h.04c.33 1.316.552 2.152.671 2.507zM63.339 30.457c.882-.947 1.323-2.237 1.323-3.87 0-1.46-.378-2.638-1.136-3.534-.756-.895-1.701-1.342-2.833-1.342-1.448 0-2.527.572-3.238 1.718h-.04l-.12-1.521h-1.874c.052 1.08.079 2.133.079 3.159v10.347h2.132v-5.055h.04c.553.908 1.46 1.362 2.725 1.362 1.17 0 2.152-.421 2.942-1.264zm-1.481-6.101c.422.606.632 1.376.632 2.31 0 1.014-.224 1.83-.672 2.449-.447.618-1.072.928-1.875.928-.684 0-1.24-.24-1.668-.721-.428-.481-.642-1.07-.642-1.768v-1.6c0-.17.033-.386.099-.65a2.426 2.426 0 0 1 .839-1.373 2.217 2.217 0 0 1 1.43-.523c.777 0 1.396.316 1.857.948zM74.375 30.457c.883-.947 1.324-2.237 1.324-3.87 0-1.46-.379-2.638-1.134-3.534-.758-.895-1.703-1.342-2.834-1.342-1.449 0-2.528.572-3.238 1.718h-.04l-.119-1.521h-1.875c.052 1.08.079 2.133.079 3.159v10.347h2.132v-5.055h.04c.552.908 1.46 1.362 2.724 1.362 1.171 0 2.152-.421 2.941-1.264zm-1.481-6.101c.422.606.633 1.376.633 2.31 0 1.014-.224 1.83-.672 2.449-.447.618-1.072.928-1.875.928-.686 0-1.242-.241-1.67-.721-.426-.481-.64-1.07-.64-1.768v-1.6c0-.17.034-.386.099-.65.131-.566.41-1.023.838-1.373a2.22 2.22 0 0 1 1.432-.523c.777 0 1.394.316 1.855.948z" fill="#fff"/><path d="M88.04 27.772c0 1.132-.394 2.053-1.183 2.764-.867.777-2.074 1.165-3.625 1.165-1.432 0-2.58-.276-3.449-.829l.494-1.777c.936.566 1.963.85 3.082.85.803 0 1.428-.182 1.877-.544.447-.362.67-.848.67-1.454 0-.54-.184-.995-.553-1.364-.367-.369-.98-.712-1.836-1.029-2.33-.869-3.494-2.142-3.494-3.816 0-1.094.408-1.991 1.225-2.689.814-.699 1.9-1.048 3.258-1.048 1.211 0 2.217.211 3.02.632l-.533 1.738c-.75-.408-1.598-.612-2.547-.612-.75 0-1.336.185-1.756.553a1.58 1.58 0 0 0-.533 1.205c0 .526.203.961.611 1.303.355.316 1 .658 1.936 1.027 1.145.461 1.986 1 2.527 1.618.54.616.808 1.387.808 2.307zM95.088 23.508h-2.35v4.66c0 1.184.414 1.776 1.244 1.776.381 0 .697-.033.947-.099l.06 1.62c-.42.156-.974.235-1.659.235-.842 0-1.5-.257-1.975-.77-.473-.514-.71-1.376-.71-2.587v-4.837h-1.4v-1.6h1.4V20.15l2.093-.632v2.39h2.35v1.601z" fill="#fff"/><path fill-rule="evenodd" clip-rule="evenodd" d="M104.427 30.26c.842-.947 1.264-2.158 1.264-3.633 0-1.435-.408-2.606-1.226-3.513-.855-.935-1.988-1.402-3.396-1.402-1.461 0-2.623.474-3.484 1.422-.863.947-1.293 2.165-1.293 3.652 0 1.42.418 2.6 1.254 3.534.836.934 1.957 1.4 3.365 1.4 1.461 0 2.633-.485 3.516-1.46zm-1.52-5.841c.383.633.572 1.392.572 2.277 0 .884-.198 1.65-.591 2.296-.461.778-1.1 1.168-1.914 1.168-.831 0-1.475-.382-1.936-1.148-.383-.632-.572-1.391-.572-2.276 0-.912.189-1.683.572-2.317.447-.765 1.098-1.148 1.955-1.148.828 0 1.467.382 1.914 1.148z" fill="#fff"/><path d="M112.621 23.783a3.702 3.702 0 0 0-.672-.06c-.75 0-1.33.284-1.738.85-.355.5-.533 1.133-.533 1.896v5.035h-2.131l.02-6.574c0-1.106-.027-2.113-.08-3.021h1.857l.078 1.836h.059c.225-.631.58-1.14 1.066-1.52a2.578 2.578 0 0 1 1.541-.514c.197 0 .375.014.533.039v2.033z" fill="#fff"/><path fill-rule="evenodd" clip-rule="evenodd" d="M122.078 27.219a5 5 0 0 0 .078-.967c0-1.197-.283-2.205-.846-3.02-.711-1.026-1.758-1.54-3.141-1.54-1.408 0-2.527.514-3.355 1.54-.791.96-1.186 2.166-1.186 3.613 0 1.474.425 2.649 1.273 3.524.85.875 2.018 1.313 3.506 1.313 1.237 0 2.309-.197 3.217-.593l-.334-1.48c-.777.303-1.641.454-2.588.454-.856 0-1.553-.224-2.092-.671-.594-.5-.903-1.225-.928-2.173h6.396zm-2.369-3.16c.289.462.428 1.008.414 1.64v-.001h-4.441c.065-.644.276-1.197.631-1.658.433-.58 1-.87 1.697-.87.763 0 1.33.297 1.699.89zM47.992 12.667c.705-.595 1.058-1.48 1.058-2.658 0-1.048-.327-1.853-.98-2.416-.581-.498-1.444-.747-2.59-.747-.647 0-1.247.046-1.804.136v6.431c.427.052.937.078 1.533.078 1.202 0 2.13-.275 2.783-.824zm-.653-4.385c.404.408.606.993.606 1.756 0 .854-.22 1.504-.656 1.95-.436.446-1.055.67-1.857.67-.343 0-.58-.01-.708-.03V7.74c.233-.046.514-.068.844-.068.777 0 1.367.204 1.77.611zM54.288 12.822c.414-.466.621-1.06.621-1.785 0-.704-.201-1.28-.601-1.726-.421-.459-.977-.688-1.669-.688-.718 0-1.288.233-1.712.698-.424.465-.635 1.064-.635 1.794 0 .698.205 1.277.615 1.736.411.46.962.689 1.654.689.718 0 1.293-.239 1.727-.718zm-.747-2.87c.187.311.281.684.281 1.12 0 .434-.097.81-.291 1.127-.226.383-.54.574-.94.574-.408 0-.724-.188-.951-.564-.187-.31-.281-.684-.281-1.119 0-.448.093-.827.281-1.138.22-.376.54-.564.961-.564.407 0 .72.188.94.564z" fill="#fff"/><path d="M62.765 8.72l-1.475 4.713h-.96l-.611-2.047a15.322 15.322 0 0 1-.38-1.523h-.018a11.15 11.15 0 0 1-.38 1.523l-.648 2.047h-.971L55.935 8.72h1.077l.533 2.241c.129.53.235 1.035.32 1.513h.019c.078-.394.207-.896.389-1.503l.669-2.25h.854l.64 2.202c.156.537.282 1.054.379 1.552h.029c.07-.485.178-1.002.32-1.552l.572-2.202h1.029zM68.198 13.433H67.15v-2.7c0-.832-.316-1.248-.95-1.248a.946.946 0 0 0-.757.343 1.217 1.217 0 0 0-.291.808v2.796h-1.048v-3.366c0-.414-.013-.863-.038-1.349h.92l.05.737h.029c.122-.229.304-.418.543-.569.284-.176.602-.265.95-.265.44 0 .806.142 1.097.427.362.35.543.87.543 1.562v2.824zM71.088 13.433h-1.047V6.556h1.047v6.877z" fill="#fff"/><path fill-rule="evenodd" clip-rule="evenodd" d="M76.637 12.822c.414-.466.62-1.06.62-1.785 0-.704-.2-1.28-.6-1.726-.422-.459-.977-.688-1.67-.688-.717 0-1.287.233-1.711.698-.424.465-.635 1.064-.635 1.794 0 .698.205 1.277.615 1.736.41.46.96.689 1.654.689.717 0 1.293-.239 1.727-.718zm-.748-2.87c.187.311.28.684.28 1.12 0 .434-.095.81-.29 1.127-.226.383-.54.574-.94.574-.407 0-.723-.188-.95-.564-.187-.31-.281-.684-.281-1.119 0-.448.093-.827.28-1.138.22-.376.54-.564.962-.564.406 0 .72.188.939.564zM81.389 13.433h.941a7.363 7.363 0 0 1-.068-1.124v-1.736c0-1.3-.618-1.95-1.85-1.95-.638 0-1.179.136-1.617.407l.213.688a2.192 2.192 0 0 1 1.229-.349c.653 0 .979.31.979.931v.088c-.873-.007-1.551.142-2.033.446-.483.304-.723.743-.723 1.319 0 .381.123.702.369.96.271.284.631.427 1.076.427.596 0 1.055-.217 1.377-.65h.029l.078.543zm-.147-2.347v.727a.893.893 0 0 1-.38.742 1.058 1.058 0 0 1-.64.218.733.733 0 0 1-.513-.184c-.135-.123-.2-.307-.2-.553 0-.653.577-.97 1.733-.95zM87.355 13.433h.93a19.858 19.858 0 0 1-.037-1.27V6.556h-1.05v2.706h-.02c-.251-.427-.694-.64-1.327-.64-.576 0-1.06.22-1.455.66-.408.472-.611 1.09-.611 1.853 0 .711.187 1.29.562 1.736.375.446.848.67 1.416.67.71 0 1.217-.289 1.514-.865h.029l.049.757zm-.156-2.774v.786c0 .336-.1.624-.301.863a1.01 1.01 0 0 1-.828.388c-.383 0-.69-.155-.916-.465-.215-.29-.322-.669-.322-1.135 0-.485.113-.882.336-1.193.225-.31.53-.466.922-.466.27 0 .506.086.7.257a1.193 1.193 0 0 1 .409.965zM96.627 12.822c.414-.466.62-1.06.62-1.785 0-.704-.2-1.28-.6-1.726-.42-.459-.977-.688-1.668-.688-.72 0-1.29.233-1.713.698-.424.465-.635 1.064-.635 1.794 0 .698.205 1.277.615 1.736.412.46.963.689 1.654.689.719 0 1.293-.239 1.727-.718zm-.746-2.87c.187.311.28.684.28 1.12 0 .434-.097.81-.29 1.127-.226.383-.541.574-.941.574-.408 0-.724-.188-.951-.564-.187-.31-.281-.684-.281-1.119 0-.448.093-.827.28-1.138.222-.376.542-.564.962-.564.408 0 .72.188.94.564z" fill="#fff"/><path d="M102.883 13.433h-1.047v-2.7c0-.832-.316-1.248-.951-1.248a.942.942 0 0 0-.756.343 1.212 1.212 0 0 0-.291.808v2.796h-1.049v-3.366c0-.414-.012-.863-.037-1.349h.92l.049.737h.029a1.53 1.53 0 0 1 .543-.569c.285-.176.602-.265.951-.265.439 0 .805.142 1.096.427.363.35.543.87.543 1.562v2.824zM109.935 9.504h-1.154v2.29c0 .582.205.873.611.873.188 0 .344-.016.467-.049l.027.795c-.207.078-.479.117-.814.117-.414 0-.736-.126-.969-.378-.234-.252-.35-.676-.35-1.27V9.503h-.689V8.72h.689v-.864l1.027-.31v1.173h1.154v.786h.001zM115.484 13.433h-1.049v-2.68c0-.845-.316-1.268-.949-1.268-.486 0-.818.245-1 .735a1.317 1.317 0 0 0-.049.377v2.835h-1.047V6.556h1.047v2.841h.02c.33-.517.803-.775 1.416-.775.434 0 .793.142 1.078.427.355.355.533.883.533 1.581v2.803z" fill="#fff"/><path fill-rule="evenodd" clip-rule="evenodd" d="M121.168 11.328a2.53 2.53 0 0 0 .039-.475c0-.588-.139-1.083-.42-1.483-.348-.504-.863-.756-1.541-.756-.693 0-1.242.252-1.648.756-.389.472-.582 1.064-.582 1.775 0 .724.207 1.301.625 1.731.416.43.991.645 1.721.645.609 0 1.135-.097 1.582-.29l-.164-.729a3.472 3.472 0 0 1-1.271.223c-.42 0-.763-.11-1.029-.33-.291-.246-.441-.6-.455-1.067h3.143zm-1.164-1.55c.142.225.211.493.203.804h-2.182c.034-.317.137-.588.311-.815a.995.995 0 0 1 .834-.427c.375 0 .652.146.834.437z" fill="#fff"/></symbol><symbol viewBox="-1 -1 22 22" fill="none" id="r-footer-soc-facebook" xmlns="http://www.w3.org/2000/svg"><path d="M10 1a9 9 0 0 1 1.406 17.89v-6.288h2.097l.4-2.602h-2.497V8.312c0-.712.349-1.406 1.467-1.406h1.135V4.691s-1.03-.175-2.015-.175c-2.056 0-3.4 1.246-3.4 3.501V10H6.31v2.602h2.285v6.289A9 9 0 0 1 10 1z" fill="currentColor"/></symbol><symbol viewBox="-1 -1 22 22" fill="none" id="r-footer-soc-instagram" xmlns="http://www.w3.org/2000/svg"><path fill-rule="evenodd" clip-rule="evenodd" d="M6.29 1.054C7.25 1.011 7.556 1 10 1h-.002c2.445 0 2.75.01 3.71.054.959.044 1.613.196 2.187.418a4.4 4.4 0 0 1 1.594 1.038c.5.5.808 1.003 1.038 1.595.222.572.373 1.226.418 2.184.044.96.055 1.267.055 3.711s-.011 2.75-.055 3.71c-.045.958-.196 1.612-.418 2.185a4.418 4.418 0 0 1-1.038 1.594c-.5.5-1.002.809-1.594 1.038-.572.223-1.227.375-2.185.419-.96.043-1.266.054-3.71.054s-2.751-.01-3.711-.054c-.958-.044-1.612-.196-2.185-.419A4.407 4.407 0 0 1 2.51 17.49a4.41 4.41 0 0 1-1.037-1.595c-.223-.572-.375-1.226-.419-2.184C1.011 12.75 1 12.444 1 10s.011-2.751.054-3.711c.043-.958.195-1.612.418-2.185a4.418 4.418 0 0 1 1.04-1.594c.5-.5 1.001-.808 1.593-1.037.573-.223 1.227-.375 2.185-.419zM9.7 2.622h-.507V2.62c-1.677.001-1.999.013-2.829.05-.877.04-1.354.187-1.671.31-.42.164-.72.359-1.035.674-.315.315-.51.615-.674 1.035-.123.317-.27.794-.31 1.671-.043.949-.051 1.232-.051 3.636 0 2.403.008 2.688.051 3.637.04.877.187 1.354.31 1.67.164.42.359.72.674 1.035.315.315.615.51 1.035.673.317.123.794.27 1.671.31.949.043 1.234.053 3.637.053s2.688-.01 3.636-.053c.878-.04 1.355-.186 1.671-.31.42-.163.72-.358 1.035-.673.315-.315.51-.614.673-1.034.123-.317.27-.793.31-1.67.043-.95.053-1.234.053-3.636s-.01-2.687-.053-3.636c-.04-.877-.187-1.353-.31-1.67a2.793 2.793 0 0 0-.673-1.035 2.784 2.784 0 0 0-1.034-.673c-.318-.124-.794-.27-1.671-.31-.95-.044-1.234-.052-3.637-.052h-.3z" fill="currentColor"/><path fill-rule="evenodd" clip-rule="evenodd" d="M14.805 4.116a1.08 1.08 0 1 0 0 2.16 1.08 1.08 0 0 0 0-2.16zM5.379 10a4.622 4.622 0 1 1 9.244 0 4.622 4.622 0 0 1-9.244 0zM13 10a3 3 0 1 0-6 0 3 3 0 0 0 6 0z" fill="currentColor"/></symbol><symbol fill="none" viewBox="-1 -1 22 22" id="r-footer-soc-linkedin" xmlns="http://www.w3.org/2000/svg"><path fill-rule="evenodd" clip-rule="evenodd" d="M5.086 6.588H1.228V18.18h3.858V6.588zm.254-3.586C5.315 1.866 4.503 1 3.183 1S1 1.866 1 3.002c0 1.113.837 2.004 2.133 2.004h.024c1.346 0 2.183-.89 2.183-2.004zM19 11.534c0-3.561-1.903-5.218-4.442-5.218-2.049 0-2.966 1.125-3.478 1.914V6.588H7.222c.05 1.088 0 11.592 0 11.592h3.858v-6.473c0-.347.025-.693.127-.94.28-.693.914-1.41 1.98-1.41 1.397 0 1.955 1.064 1.955 2.621v6.202H19v-6.646z" fill="currentColor"/></symbol><symbol viewBox="-1 -1 22 22" fill="none" id="r-footer-soc-pinterest" xmlns="http://www.w3.org/2000/svg"><path fill-rule="evenodd" clip-rule="evenodd" d="M1 10a9 9 0 1 0 18 0 9 9 0 0 0-18 0zm6.016 7.595A8.156 8.156 0 0 1 9.99 1.844a8.156 8.156 0 1 1-2.415 15.948c.332-.542.83-1.43 1.013-2.139l.508-1.938c.267.507 1.044.937 1.87.937 2.46 0 4.233-2.263 4.233-5.074 0-2.694-2.2-4.71-5.029-4.71-3.52 0-5.388 2.363-5.388 4.936 0 1.195.636 2.685 1.654 3.16.155.071.238.04.274-.11.01-.046.04-.164.075-.305l.151-.62a.246.246 0 0 0-.057-.234c-.337-.409-.606-1.16-.606-1.861 0-1.799 1.362-3.54 3.682-3.54 2.005 0 3.407 1.365 3.407 3.318 0 2.207-1.114 3.736-2.564 3.736-.8 0-1.4-.662-1.208-1.474.083-.35.195-.711.303-1.061.191-.62.373-1.208.373-1.655 0-.626-.337-1.149-1.032-1.149-.82 0-1.476.846-1.476 1.981 0 .722.244 1.21.244 1.21s-.808 3.418-.956 4.054c-.164.706-.1 1.696-.029 2.34z" fill="currentColor"/></symbol><symbol viewBox="-1 -1 22 22" fill="none" id="r-footer-soc-twitter" xmlns="http://www.w3.org/2000/svg"><path fill-rule="evenodd" clip-rule="evenodd" d="M9.74 6.99l.039.649-.65-.08c-2.367-.304-4.435-1.337-6.191-3.071l-.859-.86-.22.635c-.469 1.416-.17 2.913.806 3.919.52.556.403.635-.494.304-.313-.106-.586-.185-.612-.145-.09.092.221 1.297.468 1.774.339.662 1.028 1.31 1.782 1.695l.638.304-.755.014c-.728 0-.754.013-.676.29.26.862 1.288 1.775 2.432 2.172l.806.278-.702.424a7.275 7.275 0 0 1-3.486.98c-.585.013-1.066.066-1.066.106 0 .132 1.587.874 2.51 1.165 2.77.86 6.061.49 8.532-.98 1.756-1.046 3.512-3.125 4.331-5.137.442-1.073.884-3.032.884-3.972 0-.61.04-.689.768-1.417.429-.424.832-.887.91-1.02.13-.251.117-.251-.546-.026-1.105.397-1.262.344-.715-.252.403-.423.884-1.191.884-1.416 0-.04-.195.026-.416.145-.234.133-.754.331-1.145.45l-.702.225-.637-.436c-.351-.239-.846-.504-1.106-.583-.663-.185-1.678-.159-2.276.053-1.626.596-2.653 2.132-2.536 3.813z" fill="currentColor"/></symbol><symbol viewBox="-1 -1 22 22" fill="none" id="r-footer-soc-vk" xmlns="http://www.w3.org/2000/svg"><path fill-rule="evenodd" clip-rule="evenodd" d="M10.98 15.065s.362-.04.547-.233c.169-.177.163-.511.163-.511s-.022-1.562.722-1.792c.734-.227 1.676 1.51 2.675 2.178.755.504 1.329.394 1.329.394l2.671-.036s1.397-.084.735-1.154c-.055-.088-.387-.791-1.986-2.237-1.676-1.514-1.45-1.27.566-3.888 1.23-1.595 1.72-2.568 1.566-2.984-.145-.399-1.05-.293-1.05-.293l-3.006.018s-.223-.03-.388.067c-.162.094-.266.314-.266.314s-.476 1.234-1.11 2.284c-1.34 2.213-1.875 2.33-2.094 2.193-.51-.32-.383-1.287-.383-1.974 0-2.146.335-3.04-.65-3.272-.327-.078-.567-.128-1.404-.137-1.073-.01-1.98.004-2.495.249-.343.163-.607.527-.445.548.198.025.648.118.887.434.308.409.297 1.325.297 1.325s.177 2.526-.413 2.84c-.405.215-.961-.224-2.155-2.233C4.68 6.136 4.22 4.999 4.22 4.999s-.09-.213-.249-.327c-.193-.138-.462-.18-.462-.18l-2.857.017s-.43.012-.587.194c-.14.16-.01.495-.01.495s2.236 5.097 4.77 7.666c2.323 2.355 4.96 2.2 4.96 2.2h1.196z" fill="currentColor"/></symbol><symbol viewBox="-1 -1 22 22" fill="none" id="r-footer-soc-youtube" xmlns="http://www.w3.org/2000/svg"><path fill-rule="evenodd" clip-rule="evenodd" d="M17.11 3.388a2.296 2.296 0 0 1 1.599 1.642c.378 1.448.378 4.47.378 4.47s0 3.022-.378 4.47c-.208.8-.82 1.428-1.6 1.642C15.7 16 10.044 16 10.044 16s-5.655 0-7.066-.388a2.297 2.297 0 0 1-1.6-1.642C1 12.522 1 9.5 1 9.5s0-3.022.378-4.47c.208-.8.82-1.428 1.599-1.642C4.387 3 10.043 3 10.043 3s5.657 0 7.067.388zM8.348 6.957v5.652l4.522-2.826-4.522-2.826z" fill="currentColor"/></symbol></svg>
